<svg xmlns="http://www.w3.org/2000/svg" width="32" height="32">
  <path d="M11.537 6.631c-2.419.213-4.725 1.531-6.275 3.588-1.306 1.738-2.75 6.637-2.931 9.944-.112 2.081.969 3.538 3.35 4.5 1.069.431 2.394.719 3.319.712l.344-.006.656-.813c.363-.45.694-.869.738-.931.069-.1.031-.125-.406-.281-1.125-.394-2.238-1.075-2.987-1.819-.263-.262-.469-.488-.45-.5.013-.012.275.087.581.231 1.163.538 3.031 1.194 4.438 1.556 3.094.8 5.869.831 8.556.094 1.306-.356 2.725-.969 3.988-1.719.294-.169.556-.313.587-.313.094 0-.712.775-1.181 1.125-.556.419-1.613.969-2.344 1.225-.288.1-.519.2-.519.225s.288.4.644.837c.35.431.669.831.712.887.063.075.188.087.719.056 2.006-.113 4.35-1.025 5.412-2.106.975-.988 1.325-2.144 1.144-3.75-.406-3.519-1.65-7.456-2.887-9.125-1.425-1.931-3.431-3.15-5.806-3.531-.887-.138-1.069-.125-1.275.088l-.169.175.3.081c1.056.287 3.044 1.144 4.038 1.744.512.313 1.419.944 1.35.944-.025 0-.262-.1-.531-.225a22.321 22.321 0 0 0-6.369-1.819c-1.031-.131-3.869-.15-4.844-.031-2.238.281-4.363.844-6.081 1.613-.9.4-.844.381-.737.25.162-.194 1.387-.975 2.063-1.313.363-.188.988-.463 1.381-.619.7-.281 2.162-.731 2.363-.731.075 0 .063-.031-.05-.156-.081-.088-.175-.15-.213-.15-.037.006-.319.031-.625.063zm.619 8.281c.981.25 1.656.994 1.844 2.006.287 1.613-1.219 3.156-2.769 2.831-1.512-.313-2.363-1.919-1.8-3.387.313-.813 1.294-1.512 2.162-1.544.106-.006.363.037.563.094zm9.007.144c.556.256.919.619 1.2 1.181.219.45.231.506.231 1.069-.006.75-.156 1.175-.6 1.656-.375.413-.731.631-1.25.762-1.581.406-3.169-1.144-2.875-2.8.131-.744.538-1.363 1.137-1.719.725-.431 1.444-.481 2.156-.15z"/>
</svg>
