<svg xmlns="http://www.w3.org/2000/svg" width="32" height="32">
  <path d="M14.644 2.006A12.342 12.342 0 0 0 4.963 8.95l-.225.488H3.651c-.594 0-1.231.031-1.413.069-1.056.225-1.95 1.119-2.169 2.169-.094.45-.094 4.456 0 4.9.112.544.362.988.769 1.4.212.206.512.438.681.519.612.294.819.319 3.031.319 1.138 0 2.075-.019 2.075-.038 0-.025-.138-.481-.306-1.019s-.35-1.2-.406-1.475c-.706-3.544.331-6.981 2.875-9.5 2.012-2 4.825-3.081 7.675-2.95 1.488.069 2.756.394 4.069 1.044 3.975 1.963 6.256 6.181 5.688 10.519-.587 4.481-3.887 8-8.306 8.863-.344.069-1.05.15-1.563.175-1.031.063-1.4.156-1.938.512-.869.575-1.35 1.712-1.175 2.75.106.625.344 1.087.787 1.531 1.125 1.119 2.825 1.119 3.95 0 .637-.644.837-1.231.837-2.481 0-.544.019-.756.081-.769 3.069-.831 5.488-2.544 7.181-5.063.275-.413.644-1.05.819-1.425l.325-.675h1.156c.637 0 1.281-.031 1.431-.069 1.038-.238 1.906-1.125 2.125-2.169.094-.45.094-4.456 0-4.9-.225-1.05-1.119-1.944-2.169-2.169-.181-.037-.831-.069-1.438-.069l-1.106-.006-.319-.669c-1.587-3.3-4.831-5.838-8.406-6.569-1.194-.244-2.713-.319-3.85-.188z"/>
  <path d="M14.956 5.75c-1.906.244-3.7 1.156-5.069 2.588-2.719 2.838-3.081 7.263-.863 10.531l.344.5-.156.313a1.897 1.897 0 0 1-1.369.988l-.281.038v1.863l4.8-.025c4.588-.019 4.819-.025 5.356-.15 1.225-.281 2.394-.813 3.288-1.481 1.706-1.288 2.844-3.094 3.288-5.225.156-.738.15-2.394 0-3.119-.387-1.813-1.1-3.137-2.381-4.412-1.225-1.219-2.469-1.894-4.194-2.281-.656-.144-2.081-.213-2.762-.125zm-1.768 8.375v.938h-1.875v-1.875h1.875v.938zm3.75 0v.938h-1.875v-1.875h1.875v.938zm3.75 0v.938h-1.875v-1.875h1.875v.938z"/>
</svg>
