<svg xmlns="http://www.w3.org/2000/svg" width="32" height="32">
  <path d="M16.738 11.325c-.031 12.762.006 11.75-.525 12.831a4.549 4.549 0 0 1-2.119 2.131c-.794.387-1.225.488-2.125.488-.875 0-1.319-.1-2.063-.462a4.71 4.71 0 0 1-2.156-2.156c-.362-.756-.463-1.188-.463-2.063-.006-.906.094-1.325.506-2.156.244-.5.375-.681.856-1.156.619-.619 1.188-.962 2.006-1.219.6-.188 1.594-.231 2.219-.1.256.056.506.1.55.1.056 0 .075-.569.075-2.619v-2.625l-.294-.05c-.169-.025-.75-.044-1.3-.044-1.606.006-2.875.294-4.263.963-5.487 2.637-7.35 9.319-4.006 14.363.581.875 1.831 2.131 2.675 2.694 2.613 1.731 5.756 2.181 8.75 1.244 2.681-.837 5.075-3.031 6.156-5.631.275-.675.488-1.419.631-2.2.1-.575.106-1.113.094-6.894-.012-3.444 0-6.262.025-6.262s.15.081.275.181c.7.556 2.125 1.313 3.206 1.719 1.219.45 2.944.787 4.05.787h.563l-.012-2.581-.019-2.575-.606-.037c-1.913-.125-3.656-.925-5.088-2.338-1.4-1.375-2.219-3.138-2.375-5.112l-.044-.544h-5.156l-.025 11.325z"/>
</svg>
